<svg xmlns="http://www.w3.org/2000/svg" width="24" height="24" viewBox="0 0 24 24" fill="none" stroke="currentColor" stroke-width="1.8" stroke-linecap="round" stroke-linejoin="round" data-tofi-icon="chat-history" data-tofi-variant="filled"><path transform="translate(0.3 0.1) scale(0.75)" d="M8 3.5h8c4 0 5.2 1.8 5.2 5.2v3.5c0 3.4-1.8 5.3-5.2 5.3h-4.8c-.6 0-1.1.2-1.6.5l-4.3 3c-.3.2-.6 0-.6-.4v-3.8c-1.3-.9-1.9-2.4-1.9-4.6V8.7C2.8 5.3 4 3.5 8 3.5Z" fill="currentColor" fill-rule="evenodd" stroke="none"/><path d="M12.899999999999999 17.7a4.8 4.8 0 1 0 9.6 0a4.8 4.8 0 1 0 -9.6 0Z M17 15.1a.7.7 0 0 1 1.4 0v2.1l1.5 1a.7.7 0 0 1-.8 1.2l-1.8-1.2c-.2-.1-.3-.4-.3-.6v-2.5Z" fill="currentColor" fill-rule="evenodd" stroke="none"/></svg>
