<svg xmlns="http://www.w3.org/2000/svg" width="1440" height="1022" viewBox="0 0 1440 1022"><title>Tofi Rounded Icons / 02 / 06 / outline and filled</title><rect width="100%" height="100%" fill="#fff"/><g fill="#262b32" font-family="Inter, Helvetica Neue, Arial, Hiragino Sans GB, sans-serif"><text x="60" y="78" font-size="36" font-weight="600" letter-spacing="-1">tofi <tspan font-weight="350">/ rounded icons</tspan></text><text x="1380" y="75" text-anchor="end" font-family="SFMono-Regular, Menlo, monospace" font-size="14" fill="#8a929c">COLLECTION 02 / 02 / 06</text><text x="60" y="123" font-size="18" fill="#65707c">144 个命名图标 · 描边 + 实心 · 24 × 24 SVG</text><text x="1380" y="123" text-anchor="end" font-size="15" fill="#65707c">每组左：描边　右：实心</text><line x1="60" y1="157" x2="1380" y2="157" stroke="#e8ebef"/><text x="60" y="196" font-size="19" font-weight="550">03　对话与消息<tspan fill="#8a929c" font-size="15" font-weight="400">　/ Conversations</tspan></text><rect x="64" y="220" width="212" height="149" rx="19" fill="#f7f8fa"/><g transform="translate(102 244) scale(1.8333333333333333)" color="#262b32" fill="none" stroke="currentColor" stroke-width="1.8" stroke-linecap="round" stroke-linejoin="round"><path d="M8 3.5h8c4 0 5.2 1.8 5.2 5.2v3.5c0 3.4-1.8 5.3-5.2 5.3h-4.8c-.6 0-1.1.2-1.6.5l-4.3 3c-.3.2-.6 0-.6-.4v-3.8c-1.3-.9-1.9-2.4-1.9-4.6V8.7C2.8 5.3 4 3.5 8 3.5Z"/><path d="M7.5 8.8h9M7.5 12.6h5.3"/></g><g transform="translate(192 244) scale(1.8333333333333333)" color="#262b32" fill="none" stroke="currentColor" stroke-width="1.8" stroke-linecap="round" stroke-linejoin="round"><path d="M8 3.5h8c4 0 5.2 1.8 5.2 5.2v3.5c0 3.4-1.8 5.3-5.2 5.3h-4.8c-.6 0-1.1.2-1.6.5l-4.3 3c-.3.2-.6 0-.6-.4v-3.8c-1.3-.9-1.9-2.4-1.9-4.6V8.7C2.8 5.3 4 3.5 8 3.5Z M7.5 7.9a.9.9 0 0 0 0 1.8h9a.9.9 0 0 0 0-1.8h-9Z M7.5 11.7a.9.9 0 0 0 0 1.8h5.3a.9.9 0 0 0 0-1.8H7.5Z" fill="currentColor" fill-rule="evenodd" stroke="none"/></g><text x="170" y="321" text-anchor="middle" font-family="SFMono-Regular, Menlo, monospace" font-size="13.5">chat</text><text x="170" y="344" text-anchor="middle" font-size="12.5" fill="#8a929c">对话</text><rect x="284" y="220" width="212" height="149" rx="19" fill="#f7f8fa"/><g transform="translate(322 244) scale(1.8333333333333333)" color="#262b32" fill="none" stroke="currentColor" stroke-width="1.8" stroke-linecap="round" stroke-linejoin="round"><path transform="translate(0.3 0.1) scale(0.75)" stroke-width="2.4" d="M8 3.5h8c4 0 5.2 1.8 5.2 5.2v3.5c0 3.4-1.8 5.3-5.2 5.3h-4.8c-.6 0-1.1.2-1.6.5l-4.3 3c-.3.2-.6 0-.6-.4v-3.8c-1.3-.9-1.9-2.4-1.9-4.6V8.7C2.8 5.3 4 3.5 8 3.5Z"/><path d="M17.8 14v7.6M14 17.8h7.6"/></g><g transform="translate(412 244) scale(1.8333333333333333)" color="#262b32" fill="none" stroke="currentColor" stroke-width="1.8" stroke-linecap="round" stroke-linejoin="round"><path transform="translate(0.3 0.1) scale(0.75)" d="M8 3.5h8c4 0 5.2 1.8 5.2 5.2v3.5c0 3.4-1.8 5.3-5.2 5.3h-4.8c-.6 0-1.1.2-1.6.5l-4.3 3c-.3.2-.6 0-.6-.4v-3.8c-1.3-.9-1.9-2.4-1.9-4.6V8.7C2.8 5.3 4 3.5 8 3.5Z" fill="currentColor" fill-rule="evenodd" stroke="none"/><path stroke-width="2.2" d="M17.8 14v7.6M14 17.8h7.6"/></g><text x="390" y="321" text-anchor="middle" font-family="SFMono-Regular, Menlo, monospace" font-size="13.5">chat-new</text><text x="390" y="344" text-anchor="middle" font-size="12.5" fill="#8a929c">新对话</text><rect x="504" y="220" width="212" height="149" rx="19" fill="#f7f8fa"/><g transform="translate(542 244) scale(1.8333333333333333)" color="#262b32" fill="none" stroke="currentColor" stroke-width="1.8" stroke-linecap="round" stroke-linejoin="round"><path d="M16.1 3.5H8c-4 0-5.2 1.8-5.2 5.2v3.5c0 2.2.6 3.7 1.9 4.6v3.8c0 .4.3.6.6.4l4.3-3c.5-.3 1-.5 1.6-.5H16c3.4 0 5.2-1.9 5.2-5.3V9.8"/><circle cx="20.3" cy="4.5" r="2.7" fill="currentColor" stroke="none"/><path d="M7.5 8.8h5.2M7.5 12.6h8"/></g><g transform="translate(632 244) scale(1.8333333333333333)" color="#262b32" fill="none" stroke="currentColor" stroke-width="1.8" stroke-linecap="round" stroke-linejoin="round"><path d="M8 3.5h6.9a5.6 5.6 0 0 0 6.3 6.5v2.2c0 3.4-1.8 5.3-5.2 5.3h-4.8c-.6 0-1.1.2-1.6.5l-4.3 3c-.3.2-.6 0-.6-.4v-3.8c-1.3-.9-1.9-2.4-1.9-4.6V8.7C2.8 5.3 4 3.5 8 3.5Z M7.5 7.950000000000001L11.5 7.950000000000001a0.85 0.85 0 0 1 0 1.7L7.5 9.65a0.85 0.85 0 0 1 0 -1.7Z M7.5 11.75L15.5 11.75a0.85 0.85 0 0 1 0 1.7L7.5 13.45a0.85 0.85 0 0 1 0 -1.7Z" fill="currentColor" fill-rule="evenodd" stroke="none"/><circle cx="20.3" cy="4.5" r="2.7" fill="currentColor" stroke="none"/></g><text x="610" y="321" text-anchor="middle" font-family="SFMono-Regular, Menlo, monospace" font-size="13.5">chat-unread</text><text x="610" y="344" text-anchor="middle" font-size="12.5" fill="#8a929c">未读消息</text><rect x="724" y="220" width="212" height="149" rx="19" fill="#f7f8fa"/><g transform="translate(762 244) scale(1.8333333333333333)" color="#262b32" fill="none" stroke="currentColor" stroke-width="1.8" stroke-linecap="round" stroke-linejoin="round"><path d="M8 3.5h8c4 0 5.2 1.8 5.2 5.2v3.5c0 3.4-1.8 5.3-5.2 5.3h-4.8c-.6 0-1.1.2-1.6.5l-4.3 3c-.3.2-.6 0-.6-.4v-3.8c-1.3-.9-1.9-2.4-1.9-4.6V8.7C2.8 5.3 4 3.5 8 3.5Z"/><circle cx="7.7" cy="10.6" r="1.1" fill="currentColor" stroke="none"/><circle cx="12" cy="10.6" r="1.1" fill="currentColor" stroke="none"/><circle cx="16.3" cy="10.6" r="1.1" fill="currentColor" stroke="none"/></g><g transform="translate(852 244) scale(1.8333333333333333)" color="#262b32" fill="none" stroke="currentColor" stroke-width="1.8" stroke-linecap="round" stroke-linejoin="round"><path d="M8 3.5h8c4 0 5.2 1.8 5.2 5.2v3.5c0 3.4-1.8 5.3-5.2 5.3h-4.8c-.6 0-1.1.2-1.6.5l-4.3 3c-.3.2-.6 0-.6-.4v-3.8c-1.3-.9-1.9-2.4-1.9-4.6V8.7C2.8 5.3 4 3.5 8 3.5Z M6.5 10.6a1.2 1.2 0 1 0 2.4 0a1.2 1.2 0 1 0 -2.4 0Z M10.8 10.6a1.2 1.2 0 1 0 2.4 0a1.2 1.2 0 1 0 -2.4 0Z M15.100000000000001 10.6a1.2 1.2 0 1 0 2.4 0a1.2 1.2 0 1 0 -2.4 0Z" fill="currentColor" fill-rule="evenodd" stroke="none"/></g><text x="830" y="321" text-anchor="middle" font-family="SFMono-Regular, Menlo, monospace" font-size="13.5">chat-typing</text><text x="830" y="344" text-anchor="middle" font-size="12.5" fill="#8a929c">正在输入</text><rect x="944" y="220" width="212" height="149" rx="19" fill="#f7f8fa"/><g transform="translate(982 244) scale(1.8333333333333333)" color="#262b32" fill="none" stroke="currentColor" stroke-width="1.8" stroke-linecap="round" stroke-linejoin="round"><path transform="translate(0.3 0.1) scale(0.75)" stroke-width="2.4" d="M8 3.5h8c4 0 5.2 1.8 5.2 5.2v3.5c0 3.4-1.8 5.3-5.2 5.3h-4.8c-.6 0-1.1.2-1.6.5l-4.3 3c-.3.2-.6 0-.6-.4v-3.8c-1.3-.9-1.9-2.4-1.9-4.6V8.7C2.8 5.3 4 3.5 8 3.5Z"/><circle cx="17.7" cy="17.7" r="4.6"/><path d="M17.7 15v2.8l1.8 1.1"/></g><g transform="translate(1072 244) scale(1.8333333333333333)" color="#262b32" fill="none" stroke="currentColor" stroke-width="1.8" stroke-linecap="round" stroke-linejoin="round"><path transform="translate(0.3 0.1) scale(0.75)" d="M8 3.5h8c4 0 5.2 1.8 5.2 5.2v3.5c0 3.4-1.8 5.3-5.2 5.3h-4.8c-.6 0-1.1.2-1.6.5l-4.3 3c-.3.2-.6 0-.6-.4v-3.8c-1.3-.9-1.9-2.4-1.9-4.6V8.7C2.8 5.3 4 3.5 8 3.5Z" fill="currentColor" fill-rule="evenodd" stroke="none"/><path d="M12.899999999999999 17.7a4.8 4.8 0 1 0 9.6 0a4.8 4.8 0 1 0 -9.6 0Z M17 15.1a.7.7 0 0 1 1.4 0v2.1l1.5 1a.7.7 0 0 1-.8 1.2l-1.8-1.2c-.2-.1-.3-.4-.3-.6v-2.5Z" fill="currentColor" fill-rule="evenodd" stroke="none"/></g><text x="1050" y="321" text-anchor="middle" font-family="SFMono-Regular, Menlo, monospace" font-size="13.5">chat-history</text><text x="1050" y="344" text-anchor="middle" font-size="12.5" fill="#8a929c">对话历史</text><rect x="1164" y="220" width="212" height="149" rx="19" fill="#f7f8fa"/><g transform="translate(1202 244) scale(1.8333333333333333)" color="#262b32" fill="none" stroke="currentColor" stroke-width="1.8" stroke-linecap="round" stroke-linejoin="round"><circle cx="12" cy="12" r="9"/><path d="M12 17V7M8 11l4-4 4 4"/></g><g transform="translate(1292 244) scale(1.8333333333333333)" color="#262b32" fill="none" stroke="currentColor" stroke-width="1.8" stroke-linecap="round" stroke-linejoin="round"><path d="M12 2a10 10 0 1 0 0 20 10 10 0 0 0 0-20Z M11.3 6.3a1 1 0 0 1 1.4 0l4.1 4.1a1 1 0 0 1-1.4 1.4L13 9.4V17a1 1 0 0 1-2 0V9.4l-2.4 2.4a1 1 0 0 1-1.4-1.4l4.1-4.1Z" fill="currentColor" fill-rule="evenodd" stroke="none"/></g><text x="1270" y="321" text-anchor="middle" font-family="SFMono-Regular, Menlo, monospace" font-size="13.5">send</text><text x="1270" y="344" text-anchor="middle" font-size="12.5" fill="#8a929c">发送</text><rect x="64" y="381" width="212" height="149" rx="19" fill="#f7f8fa"/><g transform="translate(102 405) scale(1.8333333333333333)" color="#262b32" fill="none" stroke="currentColor" stroke-width="1.8" stroke-linecap="round" stroke-linejoin="round"><path d="M9.6 5 3.8 10.8l5.8 5.8M4.3 10.8h9c4.3 0 6.9 2.5 6.9 6.8v1.1"/></g><g transform="translate(192 405) scale(1.8333333333333333)" color="#262b32" fill="none" stroke="currentColor" stroke-width="1.8" stroke-linecap="round" stroke-linejoin="round"><path stroke-width="2.5" d="M9.6 5 3.8 10.8l5.8 5.8M4.3 10.8h9c4.3 0 6.9 2.5 6.9 6.8v1.1"/></g><text x="170" y="482" text-anchor="middle" font-family="SFMono-Regular, Menlo, monospace" font-size="13.5">reply</text><text x="170" y="505" text-anchor="middle" font-size="12.5" fill="#8a929c">回复</text><rect x="284" y="381" width="212" height="149" rx="19" fill="#f7f8fa"/><g transform="translate(322 405) scale(1.8333333333333333)" color="#262b32" fill="none" stroke="currentColor" stroke-width="1.8" stroke-linecap="round" stroke-linejoin="round"><path d="m14.4 5 5.8 5.8-5.8 5.8M19.7 10.8h-9c-4.3 0-6.9 2.5-6.9 6.8v1.1"/></g><g transform="translate(412 405) scale(1.8333333333333333)" color="#262b32" fill="none" stroke="currentColor" stroke-width="1.8" stroke-linecap="round" stroke-linejoin="round"><path stroke-width="2.5" d="m14.4 5 5.8 5.8-5.8 5.8M19.7 10.8h-9c-4.3 0-6.9 2.5-6.9 6.8v1.1"/></g><text x="390" y="482" text-anchor="middle" font-family="SFMono-Regular, Menlo, monospace" font-size="13.5">forward</text><text x="390" y="505" text-anchor="middle" font-size="12.5" fill="#8a929c">转发</text><rect x="504" y="381" width="212" height="149" rx="19" fill="#f7f8fa"/><g transform="translate(542 405) scale(1.8333333333333333)" color="#262b32" fill="none" stroke="currentColor" stroke-width="1.8" stroke-linecap="round" stroke-linejoin="round"><path d="M15.5 9.2v4.4c0 1.9.7 2.8 2.3 2.8 2 0 3.6-2 3.6-5C21.4 6.2 17.8 3 12.4 3 6.8 3 2.7 6.9 2.7 12.3c0 5.2 3.6 8.7 9 8.7 2.1 0 3.9-.4 5.4-1.3"/><path d="M15.3 11.9c0-2-1.3-3.4-3.2-3.4-2 0-3.5 1.5-3.5 3.6s1.3 3.6 3.3 3.6c2 0 3.4-1.7 3.4-3.8Z"/></g><g transform="translate(632 405) scale(1.8333333333333333)" color="#262b32" fill="none" stroke="currentColor" stroke-width="1.8" stroke-linecap="round" stroke-linejoin="round"><path stroke-width="2.5" d="M15.5 9.2v4.4c0 1.9.7 2.8 2.3 2.8 2 0 3.6-2 3.6-5C21.4 6.2 17.8 3 12.4 3 6.8 3 2.7 6.9 2.7 12.3c0 5.2 3.6 8.7 9 8.7 2.1 0 3.9-.4 5.4-1.3"/><path stroke-width="2.5" d="M15.3 11.9c0-2-1.3-3.4-3.2-3.4-2 0-3.5 1.5-3.5 3.6s1.3 3.6 3.3 3.6c2 0 3.4-1.7 3.4-3.8Z"/></g><text x="610" y="482" text-anchor="middle" font-family="SFMono-Regular, Menlo, monospace" font-size="13.5">mention</text><text x="610" y="505" text-anchor="middle" font-size="12.5" fill="#8a929c">提及</text><rect x="724" y="381" width="212" height="149" rx="19" fill="#f7f8fa"/><g transform="translate(762 405) scale(1.8333333333333333)" color="#262b32" fill="none" stroke="currentColor" stroke-width="1.8" stroke-linecap="round" stroke-linejoin="round"><path d="m20.8 10.8-9.2 9.2a6 6 0 0 1-8.5-8.5L12 2.6a3.7 3.7 0 0 1 5.2 5.2l-8.5 8.5a1.4 1.4 0 0 1-2-2l8-8"/></g><g transform="translate(852 405) scale(1.8333333333333333)" color="#262b32" fill="none" stroke="currentColor" stroke-width="1.8" stroke-linecap="round" stroke-linejoin="round"><path stroke-width="2.2" d="m20.8 10.8-9.2 9.2a6 6 0 0 1-8.5-8.5L12 2.6a3.7 3.7 0 0 1 5.2 5.2l-8.5 8.5a1.4 1.4 0 0 1-2-2l8-8"/></g><text x="830" y="482" text-anchor="middle" font-family="SFMono-Regular, Menlo, monospace" font-size="13.5">attachment</text><text x="830" y="505" text-anchor="middle" font-size="12.5" fill="#8a929c">附件</text><rect x="944" y="381" width="212" height="149" rx="19" fill="#f7f8fa"/><g transform="translate(982 405) scale(1.8333333333333333)" color="#262b32" fill="none" stroke="currentColor" stroke-width="1.8" stroke-linecap="round" stroke-linejoin="round"><circle cx="12" cy="12" r="9.3"/><circle cx="8.6" cy="9.5" r="1.4" fill="currentColor" stroke="none"/><circle cx="15.4" cy="9.5" r="1.4" fill="currentColor" stroke="none"/><path d="M7.8 14.2c1.1 1.8 2.5 2.7 4.2 2.7s3.1-.9 4.2-2.7"/></g><g transform="translate(1072 405) scale(1.8333333333333333)" color="#262b32" fill="none" stroke="currentColor" stroke-width="1.8" stroke-linecap="round" stroke-linejoin="round"><path d="M2.5 12a9.5 9.5 0 1 0 19 0a9.5 9.5 0 1 0 -19 0Z M7.1 9.5a1.5 1.5 0 1 0 3 0a1.5 1.5 0 1 0 -3 0Z M13.9 9.5a1.5 1.5 0 1 0 3 0a1.5 1.5 0 1 0 -3 0Z M7.3 13.7c-.4.3-.5.8-.2 1.2 1.2 2 2.9 3 4.9 3s3.7-1 4.9-3a.85.85 0 0 0-1.4-.9c-.9 1.5-2.1 2.2-3.5 2.2s-2.6-.7-3.5-2.2a.85.85 0 0 0-1.2-.3Z" fill="currentColor" fill-rule="evenodd" stroke="none"/></g><text x="1050" y="482" text-anchor="middle" font-family="SFMono-Regular, Menlo, monospace" font-size="13.5">emoji</text><text x="1050" y="505" text-anchor="middle" font-size="12.5" fill="#8a929c">表情</text><rect x="1164" y="381" width="212" height="149" rx="19" fill="#f7f8fa"/><g transform="translate(1202 405) scale(1.8333333333333333)" color="#262b32" fill="none" stroke="currentColor" stroke-width="1.8" stroke-linecap="round" stroke-linejoin="round"><path d="m14.5 3 6.5 6.5c.5.5.5 1.1 0 1.6l-1.1 1.1c-.5.5-1 .5-1.6.3l-1.2-.5-3.7 3.7.2 1.6c.1.6-.1 1.1-.5 1.5l-.7.7c-.4.4-.9.4-1.3 0l-7.1-7.1c-.4-.4-.4-.9 0-1.3l.7-.7c.4-.4.9-.6 1.5-.5l1.6.2L11.5 6 11 4.8c-.2-.6-.2-1.1.3-1.6l1.1-1.1c.5-.5 1.1-.5 1.6 0Z"/><path d="m8.1 16-5.3 5.3"/></g><g transform="translate(1292 405) scale(1.8333333333333333)" color="#262b32" fill="none" stroke="currentColor" stroke-width="1.8" stroke-linecap="round" stroke-linejoin="round"><path d="m14.5 3 6.5 6.5c.5.5.5 1.1 0 1.6l-1.1 1.1c-.5.5-1 .5-1.6.3l-1.2-.5-3.7 3.7.2 1.6c.1.6-.1 1.1-.5 1.5l-.7.7c-.4.4-.9.4-1.3 0l-7.1-7.1c-.4-.4-.4-.9 0-1.3l.7-.7c.4-.4.9-.6 1.5-.5l1.6.2L11.5 6 11 4.8c-.2-.6-.2-1.1.3-1.6l1.1-1.1c.5-.5 1.1-.5 1.6 0Z" fill="currentColor" fill-rule="evenodd" stroke="none"/><path stroke-width="2.1" d="m8.1 16-5.3 5.3"/></g><text x="1270" y="482" text-anchor="middle" font-family="SFMono-Regular, Menlo, monospace" font-size="13.5">pin</text><text x="1270" y="505" text-anchor="middle" font-size="12.5" fill="#8a929c">置顶</text><text x="60" y="586" font-size="19" font-weight="550">04　Bot 与协作<tspan fill="#8a929c" font-size="15" font-weight="400">　/ Bots &amp; collaboration</tspan></text><rect x="64" y="610" width="212" height="149" rx="19" fill="#f7f8fa"/><g transform="translate(102 634) scale(1.8333333333333333)" color="#262b32" fill="none" stroke="currentColor" stroke-width="1.8" stroke-linecap="round" stroke-linejoin="round"><path d="M1.1 10.5v3M22.9 10.5v3"/><path d="M9.1 4.5h5.8c3.6 0 5.3 1.9 5.3 5.7v3.6c0 3.8-1.7 5.7-5.3 5.7H9.1c-3.6 0-5.3-1.9-5.3-5.7v-3.6c0-3.8 1.7-5.7 5.3-5.7Z"/><rect x="7.4" y="9.1" width="2.7" height="5.8" rx="1.35" fill="currentColor" stroke="none"/><rect x="13.9" y="9.1" width="2.7" height="5.8" rx="1.35" fill="currentColor" stroke="none"/></g><g transform="translate(192 634) scale(1.8333333333333333)" color="#262b32" fill="none" stroke="currentColor" stroke-width="1.8" stroke-linecap="round" stroke-linejoin="round"><path d="M1.1 10.5v3M22.9 10.5v3"/><path d="M9.1 4.5h5.8c3.6 0 5.3 1.9 5.3 5.7v3.6c0 3.8-1.7 5.7-5.3 5.7H9.1c-3.6 0-5.3-1.9-5.3-5.7v-3.6c0-3.8 1.7-5.7 5.3-5.7Z M8.8 8.6a1.8 1.8 0 0 0-1.8 1.8v3.2a1.8 1.8 0 0 0 3.6 0v-3.2a1.8 1.8 0 0 0-1.8-1.8Z M15.2 8.6a1.8 1.8 0 0 0-1.8 1.8v3.2a1.8 1.8 0 0 0 3.6 0v-3.2a1.8 1.8 0 0 0-1.8-1.8Z" fill="currentColor" fill-rule="evenodd" stroke="none"/></g><text x="170" y="711" text-anchor="middle" font-family="SFMono-Regular, Menlo, monospace" font-size="13.5">bot</text><text x="170" y="734" text-anchor="middle" font-size="12.5" fill="#8a929c">智能伙伴</text><rect x="284" y="610" width="212" height="149" rx="19" fill="#f7f8fa"/><g transform="translate(322 634) scale(1.8333333333333333)" color="#262b32" fill="none" stroke="currentColor" stroke-width="1.8" stroke-linecap="round" stroke-linejoin="round"><path transform="translate(0.3 0.1) scale(0.75)" stroke-width="2.4" d="M1.1 10.5v3M22.9 10.5v3"/><path transform="translate(0.3 0.1) scale(0.75)" stroke-width="2.4" d="M9.1 4.5h5.8c3.6 0 5.3 1.9 5.3 5.7v3.6c0 3.8-1.7 5.7-5.3 5.7H9.1c-3.6 0-5.3-1.9-5.3-5.7v-3.6c0-3.8 1.7-5.7 5.3-5.7Z"/><rect transform="translate(0.3 0.1) scale(0.75)" x="7.4" y="9.1" width="2.7" height="5.8" rx="1.35" fill="currentColor" stroke="none"/><rect transform="translate(0.3 0.1) scale(0.75)" x="13.9" y="9.1" width="2.7" height="5.8" rx="1.35" fill="currentColor" stroke="none"/><path d="M17.8 14v7.6M14 17.8h7.6"/></g><g transform="translate(412 634) scale(1.8333333333333333)" color="#262b32" fill="none" stroke="currentColor" stroke-width="1.8" stroke-linecap="round" stroke-linejoin="round"><path transform="translate(0.3 0.1) scale(0.75)" stroke-width="2.4" d="M1.1 10.5v3M22.9 10.5v3"/><path transform="translate(0.3 0.1) scale(0.75)" d="M9.1 4.5h5.8c3.6 0 5.3 1.9 5.3 5.7v3.6c0 3.8-1.7 5.7-5.3 5.7H9.1c-3.6 0-5.3-1.9-5.3-5.7v-3.6c0-3.8 1.7-5.7 5.3-5.7Z M8.8 8.6a1.8 1.8 0 0 0-1.8 1.8v3.2a1.8 1.8 0 0 0 3.6 0v-3.2a1.8 1.8 0 0 0-1.8-1.8Z M15.2 8.6a1.8 1.8 0 0 0-1.8 1.8v3.2a1.8 1.8 0 0 0 3.6 0v-3.2a1.8 1.8 0 0 0-1.8-1.8Z" fill="currentColor" fill-rule="evenodd" stroke="none"/><path stroke-width="2.2" d="M17.8 14v7.6M14 17.8h7.6"/></g><text x="390" y="711" text-anchor="middle" font-family="SFMono-Regular, Menlo, monospace" font-size="13.5">bot-add</text><text x="390" y="734" text-anchor="middle" font-size="12.5" fill="#8a929c">创建 Bot</text><rect x="504" y="610" width="212" height="149" rx="19" fill="#f7f8fa"/><g transform="translate(542 634) scale(1.8333333333333333)" color="#262b32" fill="none" stroke="currentColor" stroke-width="1.8" stroke-linecap="round" stroke-linejoin="round"><path transform="translate(0.3 0.1) scale(0.75)" stroke-width="2.4" d="M1.1 10.5v3M22.9 10.5v3"/><path transform="translate(0.3 0.1) scale(0.75)" stroke-width="2.4" d="M9.1 4.5h5.8c3.6 0 5.3 1.9 5.3 5.7v3.6c0 3.8-1.7 5.7-5.3 5.7H9.1c-3.6 0-5.3-1.9-5.3-5.7v-3.6c0-3.8 1.7-5.7 5.3-5.7Z"/><rect transform="translate(0.3 0.1) scale(0.75)" x="7.4" y="9.1" width="2.7" height="5.8" rx="1.35" fill="currentColor" stroke="none"/><rect transform="translate(0.3 0.1) scale(0.75)" x="13.9" y="9.1" width="2.7" height="5.8" rx="1.35" fill="currentColor" stroke="none"/><circle cx="15" cy="19.4" r="0.9" fill="currentColor" stroke="none"/><circle cx="18.4" cy="18.1" r="1.2" fill="currentColor" stroke="none"/><circle cx="21.8" cy="15.8" r="1.6" fill="currentColor" stroke="none"/></g><g transform="translate(632 634) scale(1.8333333333333333)" color="#262b32" fill="none" stroke="currentColor" stroke-width="1.8" stroke-linecap="round" stroke-linejoin="round"><path transform="translate(0.3 0.1) scale(0.75)" stroke-width="2.4" d="M1.1 10.5v3M22.9 10.5v3"/><path transform="translate(0.3 0.1) scale(0.75)" d="M9.1 4.5h5.8c3.6 0 5.3 1.9 5.3 5.7v3.6c0 3.8-1.7 5.7-5.3 5.7H9.1c-3.6 0-5.3-1.9-5.3-5.7v-3.6c0-3.8 1.7-5.7 5.3-5.7Z M8.8 8.6a1.8 1.8 0 0 0-1.8 1.8v3.2a1.8 1.8 0 0 0 3.6 0v-3.2a1.8 1.8 0 0 0-1.8-1.8Z M15.2 8.6a1.8 1.8 0 0 0-1.8 1.8v3.2a1.8 1.8 0 0 0 3.6 0v-3.2a1.8 1.8 0 0 0-1.8-1.8Z" fill="currentColor" fill-rule="evenodd" stroke="none"/><circle cx="15" cy="19.4" r="1" fill="currentColor" stroke="none"/><circle cx="18.4" cy="18.1" r="1.3" fill="currentColor" stroke="none"/><circle cx="21.8" cy="15.8" r="1.7" fill="currentColor" stroke="none"/></g><text x="610" y="711" text-anchor="middle" font-family="SFMono-Regular, Menlo, monospace" font-size="13.5">bot-thinking</text><text x="610" y="734" text-anchor="middle" font-size="12.5" fill="#8a929c">Bot 思考</text><rect x="724" y="610" width="212" height="149" rx="19" fill="#f7f8fa"/><g transform="translate(762 634) scale(1.8333333333333333)" color="#262b32" fill="none" stroke="currentColor" stroke-width="1.8" stroke-linecap="round" stroke-linejoin="round"><path transform="translate(0.3 0.1) scale(0.75)" stroke-width="2.4" d="M1.1 10.5v3M22.9 10.5v3"/><path transform="translate(0.3 0.1) scale(0.75)" stroke-width="2.4" d="M9.1 4.5h5.8c3.6 0 5.3 1.9 5.3 5.7v3.6c0 3.8-1.7 5.7-5.3 5.7H9.1c-3.6 0-5.3-1.9-5.3-5.7v-3.6c0-3.8 1.7-5.7 5.3-5.7Z"/><rect transform="translate(0.3 0.1) scale(0.75)" x="7.4" y="9.1" width="2.7" height="5.8" rx="1.35" fill="currentColor" stroke="none"/><rect transform="translate(0.3 0.1) scale(0.75)" x="13.9" y="9.1" width="2.7" height="5.8" rx="1.35" fill="currentColor" stroke="none"/><path d="M17.1 14h3c1.4 0 2 .7 2 2.1v2.2c0 1.3-.7 2-2 2h-1.6l-2.4 1.6v-1.9c-.9-.3-1.2-.9-1.2-1.9v-2c0-1.4.7-2.1 2.2-2.1Z"/></g><g transform="translate(852 634) scale(1.8333333333333333)" color="#262b32" fill="none" stroke="currentColor" stroke-width="1.8" stroke-linecap="round" stroke-linejoin="round"><path transform="translate(0.3 0.1) scale(0.75)" stroke-width="2.4" d="M1.1 10.5v3M22.9 10.5v3"/><path transform="translate(0.3 0.1) scale(0.75)" d="M9.1 4.5h5.8c3.6 0 5.3 1.9 5.3 5.7v3.6c0 3.8-1.7 5.7-5.3 5.7H9.1c-3.6 0-5.3-1.9-5.3-5.7v-3.6c0-3.8 1.7-5.7 5.3-5.7Z M8.8 8.6a1.8 1.8 0 0 0-1.8 1.8v3.2a1.8 1.8 0 0 0 3.6 0v-3.2a1.8 1.8 0 0 0-1.8-1.8Z M15.2 8.6a1.8 1.8 0 0 0-1.8 1.8v3.2a1.8 1.8 0 0 0 3.6 0v-3.2a1.8 1.8 0 0 0-1.8-1.8Z" fill="currentColor" fill-rule="evenodd" stroke="none"/><path d="M17.1 14h3c1.4 0 2 .7 2 2.1v2.2c0 1.3-.7 2-2 2h-1.6l-2.4 1.6v-1.9c-.9-.3-1.2-.9-1.2-1.9v-2c0-1.4.7-2.1 2.2-2.1Z" fill="currentColor" fill-rule="evenodd" stroke="none"/></g><text x="830" y="711" text-anchor="middle" font-family="SFMono-Regular, Menlo, monospace" font-size="13.5">bot-chat</text><text x="830" y="734" text-anchor="middle" font-size="12.5" fill="#8a929c">Bot 私信</text><rect x="944" y="610" width="212" height="149" rx="19" fill="#f7f8fa"/><g transform="translate(982 634) scale(1.8333333333333333)" color="#262b32" fill="none" stroke="currentColor" stroke-width="1.8" stroke-linecap="round" stroke-linejoin="round"><path transform="translate(0.2 0.6) scale(0.66)" d="M1.1 10.5v3M22.9 10.5v3"/><path transform="translate(0.2 0.6) scale(0.66)" d="M9.1 4.5h5.8c3.6 0 5.3 1.9 5.3 5.7v3.6c0 3.8-1.7 5.7-5.3 5.7H9.1c-3.6 0-5.3-1.9-5.3-5.7v-3.6c0-3.8 1.7-5.7 5.3-5.7Z"/><rect transform="translate(0.2 0.6) scale(0.66)" x="7.4" y="9.1" width="2.7" height="5.8" rx="1.35" fill="currentColor" stroke="none"/><rect transform="translate(0.2 0.6) scale(0.66)" x="13.9" y="9.1" width="2.7" height="5.8" rx="1.35" fill="currentColor" stroke="none"/><path d="M17.4 11.2h.5c2.5 0 3.5 1.3 3.5 3.8v2.4c0 2.5-1 3.8-3.5 3.8h-3.8c-2.5 0-3.5-1.3-3.5-3.8M23 15v2M16 14.5v2.8M19 14.5v2.8"/></g><g transform="translate(1072 634) scale(1.8333333333333333)" color="#262b32" fill="none" stroke="currentColor" stroke-width="1.8" stroke-linecap="round" stroke-linejoin="round"><path transform="translate(0.2 0.6) scale(0.66)" d="M1.1 10.5v3M22.9 10.5v3"/><path transform="translate(0.2 0.6) scale(0.66)" d="M9.1 4.5h5.8c3.6 0 5.3 1.9 5.3 5.7v3.6c0 3.8-1.7 5.7-5.3 5.7H9.1c-3.6 0-5.3-1.9-5.3-5.7v-3.6c0-3.8 1.7-5.7 5.3-5.7Z M8.8 8.6a1.8 1.8 0 0 0-1.8 1.8v3.2a1.8 1.8 0 0 0 3.6 0v-3.2a1.8 1.8 0 0 0-1.8-1.8Z M15.2 8.6a1.8 1.8 0 0 0-1.8 1.8v3.2a1.8 1.8 0 0 0 3.6 0v-3.2a1.8 1.8 0 0 0-1.8-1.8Z" fill="currentColor" fill-rule="evenodd" stroke="none"/><path d="M17.3 11.2h.6c2.5 0 3.5 1.3 3.5 3.8v2.4c0 2.5-1 3.8-3.5 3.8h-3.8c-2.5 0-3.5-1.3-3.5-3.8 4.1-.1 6.1-2 6.7-6.2Z M19 14.5L19 17.3a0.8 0.8 0 0 1 -1.6 9.797174393178826e-17L17.4 14.5a0.8 0.8 0 0 1 1.6 -9.797174393178826e-17Z" fill="currentColor" fill-rule="evenodd" stroke="none"/><path d="M23 15v2"/></g><text x="1050" y="711" text-anchor="middle" font-family="SFMono-Regular, Menlo, monospace" font-size="13.5">bot-team</text><text x="1050" y="734" text-anchor="middle" font-size="12.5" fill="#8a929c">Bot 组队</text><rect x="1164" y="610" width="212" height="149" rx="19" fill="#f7f8fa"/><g transform="translate(1202 634) scale(1.8333333333333333)" color="#262b32" fill="none" stroke="currentColor" stroke-width="1.8" stroke-linecap="round" stroke-linejoin="round"><path transform="translate(0.3 0.1) scale(0.75)" stroke-width="2.4" d="M1.1 10.5v3M22.9 10.5v3"/><path transform="translate(0.3 0.1) scale(0.75)" stroke-width="2.4" d="M9.1 4.5h5.8c3.6 0 5.3 1.9 5.3 5.7v3.6c0 3.8-1.7 5.7-5.3 5.7H9.1c-3.6 0-5.3-1.9-5.3-5.7v-3.6c0-3.8 1.7-5.7 5.3-5.7Z"/><rect transform="translate(0.3 0.1) scale(0.75)" x="7.4" y="9.1" width="2.7" height="5.8" rx="1.35" fill="currentColor" stroke="none"/><rect transform="translate(0.3 0.1) scale(0.75)" x="13.9" y="9.1" width="2.7" height="5.8" rx="1.35" fill="currentColor" stroke="none"/><path d="M14.2 18h7.6M18.5 14.7l3.3 3.3-3.3 3.3"/></g><g transform="translate(1292 634) scale(1.8333333333333333)" color="#262b32" fill="none" stroke="currentColor" stroke-width="1.8" stroke-linecap="round" stroke-linejoin="round"><path transform="translate(0.3 0.1) scale(0.75)" stroke-width="2.4" d="M1.1 10.5v3M22.9 10.5v3"/><path transform="translate(0.3 0.1) scale(0.75)" d="M9.1 4.5h5.8c3.6 0 5.3 1.9 5.3 5.7v3.6c0 3.8-1.7 5.7-5.3 5.7H9.1c-3.6 0-5.3-1.9-5.3-5.7v-3.6c0-3.8 1.7-5.7 5.3-5.7Z M8.8 8.6a1.8 1.8 0 0 0-1.8 1.8v3.2a1.8 1.8 0 0 0 3.6 0v-3.2a1.8 1.8 0 0 0-1.8-1.8Z M15.2 8.6a1.8 1.8 0 0 0-1.8 1.8v3.2a1.8 1.8 0 0 0 3.6 0v-3.2a1.8 1.8 0 0 0-1.8-1.8Z" fill="currentColor" fill-rule="evenodd" stroke="none"/><path stroke-width="2.2" d="M14.2 18h7.6M18.5 14.7l3.3 3.3-3.3 3.3"/></g><text x="1270" y="711" text-anchor="middle" font-family="SFMono-Regular, Menlo, monospace" font-size="13.5">bot-handoff</text><text x="1270" y="734" text-anchor="middle" font-size="12.5" fill="#8a929c">工作交接</text><rect x="64" y="771" width="212" height="149" rx="19" fill="#f7f8fa"/><g transform="translate(102 795) scale(1.8333333333333333)" color="#262b32" fill="none" stroke="currentColor" stroke-width="1.8" stroke-linecap="round" stroke-linejoin="round"><path transform="translate(0.3 0.1) scale(0.75)" stroke-width="2.4" d="M1.1 10.5v3M22.9 10.5v3"/><path transform="translate(0.3 0.1) scale(0.75)" stroke-width="2.4" d="M9.1 4.5h5.8c3.6 0 5.3 1.9 5.3 5.7v3.6c0 3.8-1.7 5.7-5.3 5.7H9.1c-3.6 0-5.3-1.9-5.3-5.7v-3.6c0-3.8 1.7-5.7 5.3-5.7Z"/><rect transform="translate(0.3 0.1) scale(0.75)" x="7.4" y="9.1" width="2.7" height="5.8" rx="1.35" fill="currentColor" stroke="none"/><rect transform="translate(0.3 0.1) scale(0.75)" x="13.9" y="9.1" width="2.7" height="5.8" rx="1.35" fill="currentColor" stroke="none"/><path d="M16.2 14.3c-.5-.3-.9 0-.9.6v6c0 .6.4.9.9.6l5-3c.5-.3.5-.9 0-1.2l-5-3Z"/></g><g transform="translate(192 795) scale(1.8333333333333333)" color="#262b32" fill="none" stroke="currentColor" stroke-width="1.8" stroke-linecap="round" stroke-linejoin="round"><path transform="translate(0.3 0.1) scale(0.75)" stroke-width="2.4" d="M1.1 10.5v3M22.9 10.5v3"/><path transform="translate(0.3 0.1) scale(0.75)" d="M9.1 4.5h5.8c3.6 0 5.3 1.9 5.3 5.7v3.6c0 3.8-1.7 5.7-5.3 5.7H9.1c-3.6 0-5.3-1.9-5.3-5.7v-3.6c0-3.8 1.7-5.7 5.3-5.7Z M8.8 8.6a1.8 1.8 0 0 0-1.8 1.8v3.2a1.8 1.8 0 0 0 3.6 0v-3.2a1.8 1.8 0 0 0-1.8-1.8Z M15.2 8.6a1.8 1.8 0 0 0-1.8 1.8v3.2a1.8 1.8 0 0 0 3.6 0v-3.2a1.8 1.8 0 0 0-1.8-1.8Z" fill="currentColor" fill-rule="evenodd" stroke="none"/><path d="M16.2 14.3c-.5-.3-.9 0-.9.6v6c0 .6.4.9.9.6l5-3c.5-.3.5-.9 0-1.2l-5-3Z" fill="currentColor" fill-rule="evenodd" stroke="none"/></g><text x="170" y="872" text-anchor="middle" font-family="SFMono-Regular, Menlo, monospace" font-size="13.5">bot-run</text><text x="170" y="895" text-anchor="middle" font-size="12.5" fill="#8a929c">Bot 工作</text><rect x="284" y="771" width="212" height="149" rx="19" fill="#f7f8fa"/><g transform="translate(322 795) scale(1.8333333333333333)" color="#262b32" fill="none" stroke="currentColor" stroke-width="1.8" stroke-linecap="round" stroke-linejoin="round"><path transform="translate(0.3 0.1) scale(0.75)" stroke-width="2.4" d="M1.1 10.5v3M22.9 10.5v3"/><path transform="translate(0.3 0.1) scale(0.75)" stroke-width="2.4" d="M9.1 4.5h5.8c3.6 0 5.3 1.9 5.3 5.7v3.6c0 3.8-1.7 5.7-5.3 5.7H9.1c-3.6 0-5.3-1.9-5.3-5.7v-3.6c0-3.8 1.7-5.7 5.3-5.7Z"/><rect transform="translate(0.3 0.1) scale(0.75)" x="7.4" y="9.1" width="2.7" height="5.8" rx="1.35" fill="currentColor" stroke="none"/><rect transform="translate(0.3 0.1) scale(0.75)" x="13.9" y="9.1" width="2.7" height="5.8" rx="1.35" fill="currentColor" stroke="none"/><path d="M15.9 14.8v6.3M20.3 14.8v6.3"/></g><g transform="translate(412 795) scale(1.8333333333333333)" color="#262b32" fill="none" stroke="currentColor" stroke-width="1.8" stroke-linecap="round" stroke-linejoin="round"><path transform="translate(0.3 0.1) scale(0.75)" stroke-width="2.4" d="M1.1 10.5v3M22.9 10.5v3"/><path transform="translate(0.3 0.1) scale(0.75)" d="M9.1 4.5h5.8c3.6 0 5.3 1.9 5.3 5.7v3.6c0 3.8-1.7 5.7-5.3 5.7H9.1c-3.6 0-5.3-1.9-5.3-5.7v-3.6c0-3.8 1.7-5.7 5.3-5.7Z M8.8 8.6a1.8 1.8 0 0 0-1.8 1.8v3.2a1.8 1.8 0 0 0 3.6 0v-3.2a1.8 1.8 0 0 0-1.8-1.8Z M15.2 8.6a1.8 1.8 0 0 0-1.8 1.8v3.2a1.8 1.8 0 0 0 3.6 0v-3.2a1.8 1.8 0 0 0-1.8-1.8Z" fill="currentColor" fill-rule="evenodd" stroke="none"/><rect x="14.8" y="14.4" width="2.5" height="7.3" rx="1.2" fill="currentColor" stroke="none"/><rect x="19.1" y="14.4" width="2.5" height="7.3" rx="1.2" fill="currentColor" stroke="none"/></g><text x="390" y="872" text-anchor="middle" font-family="SFMono-Regular, Menlo, monospace" font-size="13.5">bot-pause</text><text x="390" y="895" text-anchor="middle" font-size="12.5" fill="#8a929c">暂停 Bot</text><rect x="504" y="771" width="212" height="149" rx="19" fill="#f7f8fa"/><g transform="translate(542 795) scale(1.8333333333333333)" color="#262b32" fill="none" stroke="currentColor" stroke-width="1.8" stroke-linecap="round" stroke-linejoin="round"><path d="M1.1 10.5v3M22.9 10.5v3"/><path d="M9.1 4.5h5.8c3.6 0 5.3 1.9 5.3 5.7v3.6c0 3.8-1.7 5.7-5.3 5.7H9.1c-3.6 0-5.3-1.9-5.3-5.7v-3.6c0-3.8 1.7-5.7 5.3-5.7Z"/><path d="M7.1 11.6q1.8 2.3 3.6 0M13.3 11.6q1.8 2.3 3.6 0"/></g><g transform="translate(632 795) scale(1.8333333333333333)" color="#262b32" fill="none" stroke="currentColor" stroke-width="1.8" stroke-linecap="round" stroke-linejoin="round"><path d="M1.1 10.5v3M22.9 10.5v3"/><path d="M9.1 4.5h5.8c3.6 0 5.3 1.9 5.3 5.7v3.6c0 3.8-1.7 5.7-5.3 5.7H9.1c-3.6 0-5.3-1.9-5.3-5.7v-3.6c0-3.8 1.7-5.7 5.3-5.7Z M6.6 11c.4-.3.9-.2 1.2.2.7.9 1.5.9 2.2 0a.85.85 0 0 1 1.4 1c-1.3 1.9-3.7 1.9-5 0a.85.85 0 0 1 .2-1.2Z M12.8 11c.4-.3.9-.2 1.2.2.7.9 1.5.9 2.2 0a.85.85 0 0 1 1.4 1c-1.3 1.9-3.7 1.9-5 0a.85.85 0 0 1 .2-1.2Z" fill="currentColor" fill-rule="evenodd" stroke="none"/></g><text x="610" y="872" text-anchor="middle" font-family="SFMono-Regular, Menlo, monospace" font-size="13.5">bot-sleep</text><text x="610" y="895" text-anchor="middle" font-size="12.5" fill="#8a929c">Bot 休息</text><rect x="724" y="771" width="212" height="149" rx="19" fill="#f7f8fa"/><g transform="translate(762 795) scale(1.8333333333333333)" color="#262b32" fill="none" stroke="currentColor" stroke-width="1.8" stroke-linecap="round" stroke-linejoin="round"><path transform="translate(0.3 0.1) scale(0.75)" stroke-width="2.4" d="M1.1 10.5v3M22.9 10.5v3"/><path transform="translate(0.3 0.1) scale(0.75)" stroke-width="2.4" d="M9.1 4.5h5.8c3.6 0 5.3 1.9 5.3 5.7v3.6c0 3.8-1.7 5.7-5.3 5.7H9.1c-3.6 0-5.3-1.9-5.3-5.7v-3.6c0-3.8 1.7-5.7 5.3-5.7Z"/><rect transform="translate(0.3 0.1) scale(0.75)" x="7.4" y="9.1" width="2.7" height="5.8" rx="1.35" fill="currentColor" stroke="none"/><rect transform="translate(0.3 0.1) scale(0.75)" x="13.9" y="9.1" width="2.7" height="5.8" rx="1.35" fill="currentColor" stroke="none"/><path d="M17.8 13.7v3.5M14.7 14.5a4.6 4.6 0 1 0 6.2 0"/></g><g transform="translate(852 795) scale(1.8333333333333333)" color="#262b32" fill="none" stroke="currentColor" stroke-width="1.8" stroke-linecap="round" stroke-linejoin="round"><path transform="translate(0.3 0.1) scale(0.75)" stroke-width="2.4" d="M1.1 10.5v3M22.9 10.5v3"/><path transform="translate(0.3 0.1) scale(0.75)" d="M9.1 4.5h5.8c3.6 0 5.3 1.9 5.3 5.7v3.6c0 3.8-1.7 5.7-5.3 5.7H9.1c-3.6 0-5.3-1.9-5.3-5.7v-3.6c0-3.8 1.7-5.7 5.3-5.7Z M8.8 8.6a1.8 1.8 0 0 0-1.8 1.8v3.2a1.8 1.8 0 0 0 3.6 0v-3.2a1.8 1.8 0 0 0-1.8-1.8Z M15.2 8.6a1.8 1.8 0 0 0-1.8 1.8v3.2a1.8 1.8 0 0 0 3.6 0v-3.2a1.8 1.8 0 0 0-1.8-1.8Z" fill="currentColor" fill-rule="evenodd" stroke="none"/><path stroke-width="2.2" d="M17.8 13.7v3.5M14.7 14.5a4.6 4.6 0 1 0 6.2 0"/></g><text x="830" y="872" text-anchor="middle" font-family="SFMono-Regular, Menlo, monospace" font-size="13.5">bot-wake</text><text x="830" y="895" text-anchor="middle" font-size="12.5" fill="#8a929c">唤醒 Bot</text><rect x="944" y="771" width="212" height="149" rx="19" fill="#f7f8fa"/><g transform="translate(982 795) scale(1.8333333333333333)" color="#262b32" fill="none" stroke="currentColor" stroke-width="1.8" stroke-linecap="round" stroke-linejoin="round"><path transform="translate(0.3 0.1) scale(0.75)" stroke-width="2.4" d="M1.1 10.5v3M22.9 10.5v3"/><path transform="translate(0.3 0.1) scale(0.75)" stroke-width="2.4" d="M9.1 4.5h5.8c3.6 0 5.3 1.9 5.3 5.7v3.6c0 3.8-1.7 5.7-5.3 5.7H9.1c-3.6 0-5.3-1.9-5.3-5.7v-3.6c0-3.8 1.7-5.7 5.3-5.7Z"/><rect transform="translate(0.3 0.1) scale(0.75)" x="7.4" y="9.1" width="2.7" height="5.8" rx="1.35" fill="currentColor" stroke="none"/><rect transform="translate(0.3 0.1) scale(0.75)" x="13.9" y="9.1" width="2.7" height="5.8" rx="1.35" fill="currentColor" stroke="none"/><path d="M14 16h7.4M14 20h7.4"/><circle cx="16.5" cy="16" r="1.6"/><circle cx="19" cy="20" r="1.6"/></g><g transform="translate(1072 795) scale(1.8333333333333333)" color="#262b32" fill="none" stroke="currentColor" stroke-width="1.8" stroke-linecap="round" stroke-linejoin="round"><path transform="translate(0.3 0.1) scale(0.75)" stroke-width="2.4" d="M1.1 10.5v3M22.9 10.5v3"/><path transform="translate(0.3 0.1) scale(0.75)" d="M9.1 4.5h5.8c3.6 0 5.3 1.9 5.3 5.7v3.6c0 3.8-1.7 5.7-5.3 5.7H9.1c-3.6 0-5.3-1.9-5.3-5.7v-3.6c0-3.8 1.7-5.7 5.3-5.7Z M8.8 8.6a1.8 1.8 0 0 0-1.8 1.8v3.2a1.8 1.8 0 0 0 3.6 0v-3.2a1.8 1.8 0 0 0-1.8-1.8Z M15.2 8.6a1.8 1.8 0 0 0-1.8 1.8v3.2a1.8 1.8 0 0 0 3.6 0v-3.2a1.8 1.8 0 0 0-1.8-1.8Z" fill="currentColor" fill-rule="evenodd" stroke="none"/><path d="M14 16h7.4M14 20h7.4"/><circle cx="16.5" cy="16" r="1.8" fill="currentColor" stroke="none"/><circle cx="19" cy="20" r="1.8" fill="currentColor" stroke="none"/></g><text x="1050" y="872" text-anchor="middle" font-family="SFMono-Regular, Menlo, monospace" font-size="13.5">bot-config</text><text x="1050" y="895" text-anchor="middle" font-size="12.5" fill="#8a929c">配置 Bot</text><rect x="1164" y="771" width="212" height="149" rx="19" fill="#f7f8fa"/><g transform="translate(1202 795) scale(1.8333333333333333)" color="#262b32" fill="none" stroke="currentColor" stroke-width="1.8" stroke-linecap="round" stroke-linejoin="round"><path transform="translate(0.3 0.1) scale(0.75)" stroke-width="2.4" d="M1.1 10.5v3M22.9 10.5v3"/><path transform="translate(0.3 0.1) scale(0.75)" stroke-width="2.4" d="M9.1 4.5h5.8c3.6 0 5.3 1.9 5.3 5.7v3.6c0 3.8-1.7 5.7-5.3 5.7H9.1c-3.6 0-5.3-1.9-5.3-5.7v-3.6c0-3.8 1.7-5.7 5.3-5.7Z"/><rect transform="translate(0.3 0.1) scale(0.75)" x="7.4" y="9.1" width="2.7" height="5.8" rx="1.35" fill="currentColor" stroke="none"/><rect transform="translate(0.3 0.1) scale(0.75)" x="13.9" y="9.1" width="2.7" height="5.8" rx="1.35" fill="currentColor" stroke="none"/><path transform="translate(12.3 12.3) scale(0.46)" d="M12 2.8c.6 5.6 3.6 8.6 9.2 9.2-5.6.6-8.6 3.6-9.2 9.2-.6-5.6-3.6-8.6-9.2-9.2 5.6-.6 8.6-3.6 9.2-9.2Z"/></g><g transform="translate(1292 795) scale(1.8333333333333333)" color="#262b32" fill="none" stroke="currentColor" stroke-width="1.8" stroke-linecap="round" stroke-linejoin="round"><path transform="translate(0.3 0.1) scale(0.75)" stroke-width="2.4" d="M1.1 10.5v3M22.9 10.5v3"/><path transform="translate(0.3 0.1) scale(0.75)" d="M9.1 4.5h5.8c3.6 0 5.3 1.9 5.3 5.7v3.6c0 3.8-1.7 5.7-5.3 5.7H9.1c-3.6 0-5.3-1.9-5.3-5.7v-3.6c0-3.8 1.7-5.7 5.3-5.7Z M8.8 8.6a1.8 1.8 0 0 0-1.8 1.8v3.2a1.8 1.8 0 0 0 3.6 0v-3.2a1.8 1.8 0 0 0-1.8-1.8Z M15.2 8.6a1.8 1.8 0 0 0-1.8 1.8v3.2a1.8 1.8 0 0 0 3.6 0v-3.2a1.8 1.8 0 0 0-1.8-1.8Z" fill="currentColor" fill-rule="evenodd" stroke="none"/><path transform="translate(12.3 12.3) scale(0.46)" d="M12 2.8c.6 5.6 3.6 8.6 9.2 9.2-5.6.6-8.6 3.6-9.2 9.2-.6-5.6-3.6-8.6-9.2-9.2 5.6-.6 8.6-3.6 9.2-9.2Z" fill="currentColor" fill-rule="evenodd" stroke="none"/></g><text x="1270" y="872" text-anchor="middle" font-family="SFMono-Regular, Menlo, monospace" font-size="13.5">bot-spark</text><text x="1270" y="895" text-anchor="middle" font-size="12.5" fill="#8a929c">Bot 灵感</text><line x1="60" y1="956" x2="1380" y2="956" stroke="#e8ebef"/><text x="60" y="992" font-size="13" fill="#8a929c">圆润基础图标 · 双侧天线 Bot · 四褶皱记忆 · 每枚均有独立 SVG</text><text x="1380" y="992" text-anchor="end" font-family="SFMono-Regular, Menlo, monospace" font-size="12" fill="#8a929c">TOFI ORIGINALS / v2.1.0</text></g></svg>
